<?xml version="1.0" encoding="utf-8"?><svg version="1.1" id="Layer_1" width="100" height="100" xmlns="http://www.w3.org/2000/svg" xmlns:xlink="http://www.w3.org/1999/xlink" x="0px" y="0px" viewBox="0 0 122.88 117.44" style="enable-background:new 0 0 122.88 117.44" xml:space="preserve"><g><path d="M21.86,19.78c2.94-2.56,6.34-4.67,10.2-6.3l-2.53-2.45c-3.63-0.09-5.12,0.47-8.62,3.17c-1.23,0.95-2.47,1.99-3.7,3.11 c-1.62,2.11-3.23,2.44-4.85,0.79l-0.88-0.79c-0.88-1.43-1.04-3,1.32-5.11l3.98-3.13c1.79-1.41,3.5-3.24,5.9-3.37 c0.44-0.03,0.91-0.01,1.38,0.05l-1.42-1.37c-0.57-0.45-1.15-0.81-1.75-1.07c-0.59-0.25-1.2-0.41-1.82-0.44 c-2.1-0.12-5.32,1.95-8.36,4.68c-3.69,3.31-6.97,7.49-7.68,9.98c-1.13,3.94,3.89,8.28,8.1,11.92c0.58,0.5,1.14,0.99,1.67,1.46 c2.24-4.06,5-7.53,8.26-10.42C21.32,20.24,21.59,20.01,21.86,19.78L21.86,19.78z M102.99,95.63c2.44-3.04,4.42-6.52,5.89-10.44 l2.55,2.43c0.24,3.62-0.27,5.14-2.82,8.74c-0.9,1.27-1.89,2.54-2.96,3.82c-2.04,1.7-2.31,3.33-0.6,4.87l0.83,0.85 c1.46,0.82,3.04,0.93,5.05-1.52l2.97-4.1c1.34-1.84,3.1-3.63,3.14-6.03c0.01-0.44-0.03-0.91-0.11-1.38l1.43,1.37 c0.47,0.55,0.85,1.12,1.13,1.71c0.28,0.58,0.46,1.18,0.52,1.81c0.2,2.09-1.74,5.4-4.34,8.54c-3.17,3.82-7.21,7.26-9.67,8.07 c-3.89,1.29-8.43-3.56-12.23-7.63c-0.52-0.56-1.03-1.1-1.53-1.62c3.97-2.4,7.32-5.29,10.09-8.66 C102.55,96.19,102.78,95.91,102.99,95.63L102.99,95.63z M75.6,69.87c0.36-0.7,0.09-1.56-0.61-1.92s-1.56-0.09-1.92,0.61 c-0.86,1.66-1.84,3.18-2.97,4.53c-1.12,1.33-2.39,2.49-3.84,3.46c-0.66,0.44-0.83,1.32-0.4,1.98c0.44,0.66,1.32,0.83,1.98,0.4 c1.69-1.12,3.16-2.47,4.44-4C73.55,73.42,74.64,71.72,75.6,69.87L75.6,69.87z M81.27,75.11c0.36-0.7,0.09-1.56-0.61-1.92 c-0.7-0.36-1.56-0.09-1.92,0.61c-0.86,1.66-1.84,3.18-2.97,4.53c-1.12,1.33-2.39,2.49-3.84,3.46c-0.66,0.44-0.83,1.32-0.4,1.98 c0.44,0.66,1.32,0.83,1.98,0.4c1.69-1.12,3.16-2.47,4.44-4C79.22,78.66,80.32,76.96,81.27,75.11L81.27,75.11z M92.67,68.4 c-1.54-2.57-3.1-4.77-4.67-6.61l-0.18-0.21c-1.93-3.05-3.32-6.1-1.89-7.18l0,0c0.92-0.69,2.3-0.77,3.76-0.51 c2.17,0.38,4.4,1.49,5.76,2.5c1.77,1.33,3.38,3.05,4.76,4.9c1.65,2.2,2.97,4.57,3.88,6.66c0.92,2.14,1.61,4.44,2.06,6.91 c0.43,2.41,0.62,4.98,0.56,7.73c-1.43,4.26-3.43,8.06-6.03,11.38c-0.19,0.24-0.39,0.48-0.59,0.71c-3,3.49-6.72,6.33-11.1,8.57l0,0 c-0.05,0.03-0.1,0.06-0.15,0.09c-0.54-0.02-1.09-0.05-1.65-0.1c-0.96-0.08-1.9-0.19-2.82-0.34c-3.02-0.5-5.59-1.3-8.03-2.42 c-2.47-1.13-4.82-2.57-7.4-4.32c-1.26-0.85-2.51-1.78-3.75-2.78c-1.24-0.99-2.42-2.03-3.55-3.11h0c-2.46-2.57-4.17-5.07-5.17-7.51 c-0.97-2.37-1.26-4.69-0.9-6.97c0.34-2.12,1.6-4.66,3.24-7.1c2.09-3.13,4.75-6.06,6.86-7.86c0.91-0.77,1.8-1.43,2.68-1.95 c2.86-1.71,5.75-2.25,8.6-1.53c2.91,0.73,5.86,2.77,8.8,6.18c1.24,1.98,2.63,3.83,3.67,5.24c0.29,0.38,0.54,0.72,0.93,1.26 c0.46,0.64,1.35,0.79,1.99,0.32C92.94,69.9,93.1,69.04,92.67,68.4L92.67,68.4z M82.75,56.96c-1.7-1.16-3.41-1.95-5.14-2.38 c-3.62-0.91-7.22-0.26-10.76,1.86c-1.05,0.63-2.07,1.37-3.08,2.23c-2.27,1.94-5.14,5.1-7.38,8.45c-1.84,2.75-3.28,5.67-3.69,8.25 c-0.44,2.79-0.09,5.61,1.09,8.48c1.14,2.79,3.06,5.6,5.79,8.45l0.04,0.04l0,0c1.23,1.17,2.47,2.26,3.74,3.28 c1.25,1.01,2.57,1.98,3.94,2.91c2.71,1.84,5.19,3.36,7.82,4.56c2.66,1.21,5.45,2.09,8.75,2.64c1.05,0.17,2.07,0.3,3.06,0.38 c0.77,0.06,1.56,0.1,2.36,0.11c0.75,0.75,1.55,1.6,2.38,2.49c4.37,4.67,9.59,10.24,15.21,8.38c2.93-0.97,7.52-4.78,10.98-8.96 c3.03-3.66,5.27-7.7,4.99-10.62c-0.1-0.98-0.36-1.9-0.78-2.77c-0.4-0.84-0.94-1.63-1.59-2.38l0,0c-0.03-0.03-0.06-0.07-0.09-0.1 l-10.84-10.36c0.02-2.64-0.19-5.14-0.61-7.51c-0.48-2.67-1.23-5.18-2.25-7.53c-0.99-2.29-2.43-4.87-4.21-7.26 c-1.53-2.05-3.33-3.97-5.33-5.47c-1.64-1.23-4.35-2.57-6.97-3.03c-2.16-0.38-4.32-0.19-5.97,1.05l0,0l0,0 C82.67,53.28,82.36,55.01,82.75,56.96L82.75,56.96z M48.69,46.14c0.69-0.39,1.56-0.15,1.95,0.54c0.39,0.69,0.15,1.56-0.54,1.95 c-1.62,0.92-3.1,1.96-4.41,3.15c-1.29,1.17-2.4,2.48-3.3,3.97c-0.41,0.67-1.29,0.89-1.96,0.48c-0.67-0.41-0.89-1.29-0.48-1.96 c1.06-1.73,2.34-3.25,3.82-4.6C45.22,48.33,46.88,47.17,48.69,46.14L48.69,46.14z M43.22,40.68c0.69-0.39,1.56-0.15,1.95,0.54 c0.39,0.69,0.15,1.56-0.54,1.95c-1.62,0.92-3.1,1.96-4.41,3.15c-1.29,1.17-2.4,2.48-3.3,3.97c-0.41,0.67-1.29,0.89-1.96,0.48 c-0.67-0.41-0.89-1.29-0.48-1.96c1.06-1.73,2.34-3.25,3.82-4.6C39.76,42.86,41.41,41.7,43.22,40.68L43.22,40.68z M49.48,29.03 c2.63,1.44,4.89,2.91,6.79,4.41l0.21,0.17c3.12,1.8,6.23,3.07,7.25,1.61l0,0c0.66-0.95,0.68-2.33,0.36-3.77 c-0.47-2.15-1.66-4.34-2.72-5.65c-1.39-1.72-3.18-3.26-5.08-4.57c-2.27-1.56-4.68-2.79-6.81-3.61c-2.18-0.84-4.5-1.44-6.99-1.78 c-2.43-0.34-5.01-0.42-7.74-0.25c-4.2,1.6-7.92,3.75-11.13,6.47c-0.23,0.2-0.46,0.41-0.68,0.62c-3.37,3.14-6.06,6.96-8.12,11.43 l0,0c-0.02,0.05-0.05,0.1-0.08,0.15c0.04,0.54,0.09,1.09,0.16,1.64c0.12,0.96,0.27,1.89,0.46,2.8c0.62,3,1.52,5.53,2.73,7.92 c1.22,2.42,2.76,4.72,4.61,7.22c0.9,1.22,1.88,2.44,2.92,3.64c1.04,1.2,2.12,2.34,3.24,3.42h0c2.66,2.35,5.23,3.97,7.71,4.87 c2.41,0.88,4.74,1.08,7,0.63c2.11-0.42,4.59-1.79,6.97-3.52c3.04-2.21,5.87-4.99,7.58-7.16c0.74-0.94,1.35-1.86,1.85-2.76 c1.6-2.93,2.02-5.83,1.19-8.65c-0.85-2.88-2.99-5.75-6.52-8.55c-2.03-1.16-3.93-2.47-5.38-3.47c-0.39-0.27-0.74-0.51-1.3-0.88 c-0.66-0.44-0.84-1.32-0.4-1.98C47.97,28.81,48.83,28.62,49.48,29.03L49.48,29.03z M61.3,38.48c1.22,1.65,2.08,3.33,2.58,5.04 c1.05,3.58,0.55,7.21-1.43,10.82c-0.58,1.07-1.29,2.12-2.1,3.16c-1.85,2.35-4.89,5.34-8.15,7.71c-2.68,1.95-5.54,3.5-8.1,4.01 c-2.77,0.55-5.61,0.31-8.52-0.75c-2.83-1.03-5.72-2.84-8.67-5.46l-0.04-0.04l0,0c-1.22-1.18-2.36-2.38-3.42-3.6 c-1.06-1.21-2.08-2.49-3.06-3.82c-1.94-2.63-3.56-5.06-4.87-7.64c-1.32-2.61-2.31-5.37-2.98-8.64c-0.21-1.04-0.38-2.05-0.5-3.04 c-0.09-0.77-0.16-1.55-0.2-2.35c-0.77-0.72-1.66-1.49-2.58-2.28c-4.84-4.19-10.61-9.18-8.98-14.86c0.85-2.96,4.48-7.7,8.52-11.32 c3.53-3.17,7.49-5.57,10.42-5.4c0.99,0.06,1.92,0.29,2.8,0.67c0.85,0.37,1.67,0.87,2.44,1.49l0,0c0.03,0.03,0.07,0.06,0.1,0.09 l10.78,10.42c2.64-0.12,5.15-0.01,7.53,0.32c2.69,0.37,5.22,1.03,7.62,1.95c2.33,0.9,4.96,2.23,7.42,3.92 c2.11,1.45,4.09,3.17,5.67,5.11c1.3,1.59,2.74,4.24,3.31,6.85c0.47,2.15,0.36,4.31-0.81,6l0,0l0,0 C64.98,38.41,63.27,38.79,61.3,38.48L61.3,38.48z"/></g></svg>